<svg width="100" height="100" viewBox="0 0 100 100" fill="none" xmlns="http://www.w3.org/2000/svg">
<rect width="100" height="100" fill="#F3F5FF"/>
<path d="M12.5977 61.25V33.2422H17.1875V45.5664L27.5977 33.2422H33.3398L21.5039 47.2461L33.3398 61.25H27.5977L17.1875 48.9648V61.25H12.5977ZM36.8945 61.25V33.2422H46.9336C48.431 33.2422 49.7852 33.5026 50.9961 34.0234C52.207 34.5443 53.2422 35.2604 54.1016 36.1719C54.974 37.0833 55.638 38.1315 56.0938 39.3164C56.5625 40.5013 56.7969 41.7448 56.7969 43.0469C56.7969 44.0625 56.6602 45.0326 56.3867 45.957C56.1263 46.8685 55.7357 47.7214 55.2148 48.5156C54.707 49.2969 54.082 50 53.3398 50.625C52.6107 51.25 51.7904 51.7513 50.8789 52.1289L56.4453 61.25H51.2109L46.0938 52.8516H41.4844V61.25H36.8945ZM41.4844 48.7305H46.9336C47.7279 48.7305 48.4505 48.5807 49.1016 48.2812C49.7526 47.9688 50.306 47.5521 50.7617 47.0312C51.2174 46.5104 51.569 45.9115 51.8164 45.2344C52.0768 44.5573 52.207 43.8281 52.207 43.0469C52.207 42.2786 52.0768 41.556 51.8164 40.8789C51.569 40.1888 51.2174 39.5833 50.7617 39.0625C50.306 38.5417 49.7526 38.1315 49.1016 37.832C48.4505 37.5195 47.7279 37.3633 46.9336 37.3633H41.4844V48.7305ZM59.8633 47.2461C59.8633 45.3581 60.1953 43.5286 60.8594 41.7578C61.5234 39.974 62.474 38.4049 63.7109 37.0508C64.9609 35.6966 66.4844 34.6159 68.2812 33.8086C70.0781 32.9883 72.0964 32.5781 74.3359 32.5781C76.5755 32.5781 78.5938 32.9883 80.3906 33.8086C82.2005 34.6159 83.724 35.6966 84.9609 37.0508C86.1979 38.4049 87.1484 39.974 87.8125 41.7578C88.4896 43.5286 88.8281 45.3581 88.8281 47.2461C88.8281 49.1341 88.4896 50.9701 87.8125 52.7539C87.1484 54.5247 86.1979 56.0938 84.9609 57.4609C83.724 58.8151 82.2005 59.9023 80.3906 60.7227C78.5938 61.5299 76.5755 61.9336 74.3359 61.9336C72.0964 61.9336 70.0781 61.5299 68.2812 60.7227C66.4844 59.9023 64.9609 58.8151 63.7109 57.4609C62.474 56.0938 61.5234 54.5247 60.8594 52.7539C60.1953 50.9831 59.8633 49.1471 59.8633 47.2461ZM64.707 47.2461C64.707 48.6003 64.9219 49.9154 65.3516 51.1914C65.7943 52.4544 66.4323 53.5807 67.2656 54.5703C68.112 55.5599 69.1276 56.3477 70.3125 56.9336C71.4974 57.5195 72.8385 57.8125 74.3359 57.8125C75.8333 57.8125 77.1745 57.5195 78.3594 56.9336C79.5443 56.3477 80.5534 55.5599 81.3867 54.5703C82.2331 53.5807 82.8776 52.4544 83.3203 51.1914C83.763 49.9284 83.9844 48.6133 83.9844 47.2461C83.9844 45.8919 83.763 44.5833 83.3203 43.3203C82.8776 42.0443 82.2331 40.918 81.3867 39.9414C80.5534 38.9518 79.5443 38.1641 78.3594 37.5781C77.1745 36.9922 75.8333 36.6992 74.3359 36.6992C72.8385 36.6992 71.4974 36.9922 70.3125 37.5781C69.1276 38.1641 68.112 38.9518 67.2656 39.9414C66.4323 40.918 65.7943 42.0443 65.3516 43.3203C64.9219 44.5833 64.707 45.8919 64.707 47.2461Z" fill="#784ED2"/>
</svg>
